<?xml version="1.0" encoding="utf-8"?>
<!-- Generator: Adobe Illustrator 27.8.1, SVG Export Plug-In . SVG Version: 6.00 Build 0)  -->
<svg version="1.1" id="Layer_1" xmlns="http://www.w3.org/2000/svg" xmlns:xlink="http://www.w3.org/1999/xlink" x="0px" y="0px"
	 viewBox="0 0 256 256" style="enable-background:new 0 0 256 256;" xml:space="preserve">
<style type="text/css">
	.st0{fill:#C894EE;}
	.st1{fill:#FFFFFF;stroke:#231F20;stroke-width:0.7765;stroke-miterlimit:10;}
	.st2{stroke:#E4B5FF;stroke-width:0.5;stroke-miterlimit:10;}
</style>
<rect class="st0" width="256" height="256"/>
<path class="st1" d="M149.1,20.9v101.7c0,3.3,2.7,6,6,6c1.7,0,3.4-0.7,4.6-2.1l22.7-25.9l15.9,31.9c2.2,4.3,7.4,6.1,11.8,3.9
	s6.1-7.4,3.9-11.8l-15.5-31.2h32.4c3.3,0,6.1-2.7,6.1-6.1c0-1.7-0.7-3.4-2-4.5l-75.1-66.8c-1.2-1-2.7-1.6-4.2-1.6
	C151.9,14.5,149.1,17.4,149.1,20.9z"/>
<g>
	<path class="st2" d="M123.9,135.4c-9.1,0.6-12.4,2.9-12.7,9.5c-0.1,3.3-0.4,9.4-0.4,22.6v15.6c0,14.7-1.7,25.9-10.1,34.7
		c-6.8,7.1-16.6,9.2-26.5,9.2c-8.4,0-17.3-1.7-23.6-6.6c-8.6-6.6-12.8-16.6-12.8-33.4v-36.7c0-13-1.2-13.8-12.7-14.8v-4H63v4
		c-11.5,0.7-12.7,1.9-12.7,14.8v36c0,21,9.9,32.5,27.2,32.5c20.4,0,26.9-12.7,26.9-36.6v-14.7c0-13.2-0.4-18.7-0.7-22.6
		c-0.4-6.5-3.7-8.9-14.4-9.5v-4h34.6V135.4z"/>
	<path class="st2" d="M203.1,225v-4c8.5-0.9,9.5-1.4,9.5-11.5v-24c0-10.2-3.5-16.7-12.4-16.7c-5.5,0-10.5,3-16,7.5
		c0.1,1.7,0.4,3.5,0.4,6.2v27.9c0,9.1,1.3,9.8,9.2,10.7v4h-30.8v-4c8.9-0.9,10.2-1.4,10.2-10.9v-24.8c0-10.7-3.3-16.6-12.1-16.6
		c-5.8,0-11.4,3.9-15.8,7.5V210c0,9.5,1,10.1,9.2,10.9v4h-31v-4c9.5-0.9,10.4-1.4,10.4-10.9v-29.8c0-9.2-0.6-9.8-8.6-11.2v-3.6
		c6.8-1,13.5-2.9,20-5.8c0,3.5,0,8.2,0,11.7c3-2.3,6-4.8,10.7-7.5c3.6-2.3,6.8-3.7,11.4-3.7c6.9,0,12.8,4.3,15.7,11.8
		c4-3.2,7.8-5.6,11.4-8.1c3.2-2,7.2-3.7,11.4-3.7c11.2,0,18.1,8.1,18.1,22.2V210c0,9.6,0.9,10.1,9.1,10.9v4H203.1z"/>
</g>
</svg>
